<svg xmlns="http://www.w3.org/2000/svg" xmlns:xlink="http://www.w3.org/1999/xlink" width="500" zoomAndPan="magnify" viewBox="0 0 375 374.999991" height="500" preserveAspectRatio="xMidYMid meet" version="1.0"><defs><clipPath id="340da99b8c"><path d="M 285.117188 157.652344 L 331.367188 157.652344 L 331.367188 216.035156 L 285.117188 216.035156 Z M 285.117188 157.652344 " clip-rule="nonzero"/></clipPath><clipPath id="4ba87a19c9"><path d="M 233 157.652344 L 286 157.652344 L 286 216.035156 L 233 216.035156 Z M 233 157.652344 " clip-rule="nonzero"/></clipPath><clipPath id="fb1c13c0f5"><path d="M 178 157.652344 L 227.976562 157.652344 L 227.976562 216.035156 L 178 216.035156 Z M 178 157.652344 " clip-rule="nonzero"/></clipPath><clipPath id="6a53d5ff7e"><path d="M 64 157.652344 L 105.226562 157.652344 L 105.226562 216.035156 L 64 216.035156 Z M 64 157.652344 " clip-rule="nonzero"/></clipPath><clipPath id="bcbaf5f0af"><path d="M 107.339844 157.652344 L 157 157.652344 L 157 216.035156 L 107.339844 216.035156 Z M 107.339844 157.652344 " clip-rule="nonzero"/></clipPath><clipPath id="4647df0309"><path d="M 159 157.652344 L 176 157.652344 L 176 216.035156 L 159 216.035156 Z M 159 157.652344 " clip-rule="nonzero"/></clipPath><clipPath id="f94639c64a"><path d="M 42.585938 157.652344 L 58.664062 157.652344 L 58.664062 216.035156 L 42.585938 216.035156 Z M 42.585938 157.652344 " clip-rule="nonzero"/></clipPath></defs><rect x="-37.5" width="450" fill="#ffffff" y="-37.499999" height="449.999989" fill-opacity="1"/><rect x="-37.5" width="450" fill="#ffffff" y="-37.499999" height="449.999989" fill-opacity="1"/><g clip-path="url(#340da99b8c)"><path fill="#0067e5" d="M 330.976562 168.285156 C 331.523438 168.285156 331.796875 168.011719 331.796875 167.464844 L 331.796875 161.695312 C 331.796875 159.675781 329.859375 157.652344 327.746094 157.652344 L 285.9375 157.652344 C 288.054688 157.652344 289.988281 159.675781 289.988281 161.695312 L 289.988281 167.464844 C 289.988281 168.011719 290.261719 168.285156 290.808594 168.285156 L 300.910156 168.285156 C 303.027344 168.285156 304.960938 170.308594 304.960938 172.335938 L 304.960938 215.488281 C 304.960938 216.035156 305.234375 216.308594 305.777344 216.308594 L 316.003906 216.308594 C 316.550781 216.308594 316.824219 216.035156 316.824219 215.488281 L 316.824219 172.335938 C 316.824219 170.308594 314.890625 168.285156 312.773438 168.285156 C 318.410156 168.285156 324.023438 168.285156 330.976562 168.285156 Z M 330.976562 168.285156 " fill-opacity="1" fill-rule="nonzero"/></g><g clip-path="url(#4ba87a19c9)"><path fill="#0067e5" d="M 233.449219 187.429688 C 233.449219 190.648438 233.480469 191.796875 233.53125 194.144531 C 233.589844 196.484375 233.753906 198.394531 234.027344 199.863281 C 234.464844 201.996094 234.929688 203.90625 235.417969 205.59375 C 235.90625 207.289062 236.566406 208.675781 237.382812 209.769531 C 238.46875 211.183594 239.839844 212.429688 241.46875 213.488281 C 243.105469 214.554688 244.859375 215.308594 246.710938 215.738281 C 248.015625 216.011719 249.734375 216.175781 251.859375 216.234375 C 253.992188 216.28125 256.523438 216.308594 259.464844 216.308594 C 262.417969 216.308594 264.957031 216.28125 267.078125 216.234375 C 269.203125 216.175781 270.925781 216.011719 272.230469 215.738281 C 274.089844 215.308594 275.835938 214.554688 277.472656 213.488281 C 279.109375 212.429688 280.464844 211.183594 281.5625 209.769531 C 282.382812 208.675781 283.027344 207.289062 283.523438 205.59375 C 284.011719 203.90625 284.472656 201.996094 284.914062 199.863281 C 285.183594 198.394531 285.351562 196.484375 285.398438 194.144531 C 285.457031 191.796875 285.484375 190.648438 285.484375 187.429688 L 285.484375 186.933594 C 285.484375 183.71875 285.457031 182.164062 285.398438 179.824219 C 285.351562 177.476562 285.183594 175.566406 284.914062 174.09375 C 284.472656 171.960938 284.011719 170.054688 283.523438 168.367188 C 283.027344 166.671875 282.382812 165.28125 281.5625 164.191406 C 280.464844 162.777344 279.101562 161.539062 277.472656 160.472656 C 275.835938 159.414062 274.089844 158.660156 272.230469 158.222656 C 270.925781 157.949219 269.203125 157.785156 267.078125 157.726562 C 264.957031 157.675781 262.417969 157.652344 259.464844 157.652344 C 256.523438 157.652344 253.992188 157.675781 251.859375 157.726562 C 249.734375 157.785156 248.015625 157.949219 246.710938 158.222656 C 244.859375 158.660156 243.105469 159.414062 241.46875 160.472656 C 239.839844 161.53125 238.46875 162.777344 237.382812 164.191406 C 236.566406 165.28125 235.90625 166.671875 235.417969 168.367188 C 234.929688 170.054688 234.464844 171.960938 234.027344 174.09375 C 233.753906 175.566406 233.589844 177.476562 233.53125 179.824219 C 233.480469 182.164062 233.449219 183.71875 233.449219 186.933594 Z M 259.464844 168.9375 C 261.160156 168.9375 262.773438 168.976562 264.292969 169.0625 C 265.824219 169.144531 267.128906 169.316406 268.222656 169.589844 C 270.1875 170.085938 271.578125 171.054688 272.394531 172.5 C 273.214844 173.9375 273.621094 176.113281 273.621094 179.007812 L 273.621094 194.953125 C 273.621094 197.847656 273.214844 200.023438 272.394531 201.460938 C 271.578125 202.90625 270.1875 203.875 268.222656 204.371094 C 267.128906 204.644531 265.824219 204.816406 264.292969 204.898438 C 262.773438 204.980469 261.160156 205.023438 259.464844 205.023438 C 257.78125 205.023438 256.167969 204.980469 254.644531 204.898438 C 253.117188 204.816406 251.808594 204.644531 250.71875 204.371094 C 248.75 203.875 247.363281 202.90625 246.542969 201.460938 C 245.726562 200.023438 245.3125 197.847656 245.3125 194.953125 L 245.3125 179.007812 C 245.3125 176.113281 245.726562 173.9375 246.542969 172.5 C 247.363281 171.054688 248.75 170.085938 250.71875 169.589844 C 251.808594 169.316406 253.117188 169.144531 254.644531 169.0625 C 256.167969 168.976562 257.78125 168.9375 259.464844 168.9375 Z M 259.464844 168.9375 " fill-opacity="1" fill-rule="nonzero"/></g><g clip-path="url(#fb1c13c0f5)"><path fill="#0067e5" d="M 182.871094 157.652344 L 212.34375 157.652344 C 214.308594 157.652344 216.121094 157.976562 217.789062 158.628906 C 219.453125 159.289062 220.898438 160.230469 222.121094 161.457031 C 223.355469 162.679688 224.3125 164.167969 225.023438 165.910156 C 225.734375 167.65625 226.089844 169.625 226.089844 171.804688 C 226.089844 174.75 225.84375 177.082031 225.355469 178.800781 C 224.859375 180.519531 224.304688 181.824219 223.675781 182.726562 C 223.050781 183.628906 222.488281 184.222656 222 184.527344 C 221.511719 184.828125 221.261719 185.058594 221.261719 185.222656 C 221.261719 185.496094 221.683594 186.066406 222.535156 186.933594 C 223.378906 187.8125 224.3125 188.820312 225.355469 189.96875 C 225.734375 190.457031 226.074219 191.027344 226.371094 191.6875 C 226.679688 192.339844 226.933594 193.011719 227.15625 193.6875 C 227.371094 194.367188 227.523438 195.054688 227.605469 195.730469 C 227.6875 196.417969 227.726562 197.003906 227.726562 197.492188 C 227.726562 200.113281 227.480469 202.566406 226.992188 204.859375 C 226.496094 207.148438 225.636719 209.140625 224.414062 210.828125 C 223.191406 212.523438 221.5625 213.851562 219.542969 214.835938 C 217.527344 215.820312 214.964844 216.308594 211.855469 216.308594 L 182.894531 216.308594 C 182.347656 216.308594 182.078125 216.035156 182.078125 215.488281 L 182.078125 161.695312 C 182.078125 159.675781 180.140625 157.652344 178.027344 157.652344 Z M 193.941406 204.859375 C 193.941406 205.402344 194.214844 205.675781 194.757812 205.675781 L 212.019531 205.675781 C 212.945312 205.675781 213.707031 205.429688 214.308594 204.941406 C 214.90625 204.445312 215.402344 203.832031 215.78125 203.097656 C 216.164062 202.359375 216.417969 201.585938 216.558594 200.765625 C 216.699219 199.945312 216.765625 199.234375 216.765625 198.640625 C 216.765625 197.382812 216.617188 196.335938 216.3125 195.492188 C 216.011719 194.648438 215.632812 193.96875 215.171875 193.480469 C 214.707031 192.996094 214.1875 192.65625 213.617188 192.457031 C 213.039062 192.265625 212.507812 192.175781 212.019531 192.175781 C 203.96875 192.175781 196.527344 192.175781 189.890625 192.175781 C 192.003906 192.175781 193.941406 194.203125 193.941406 196.21875 Z M 193.941406 180.3125 C 193.941406 180.859375 194.214844 181.132812 194.757812 181.132812 L 208.910156 181.132812 C 211.09375 181.132812 212.640625 180.652344 213.574219 179.699219 C 214.5 178.75 214.964844 177.015625 214.964844 174.5 C 214.964844 172.160156 214.359375 170.53125 213.160156 169.640625 C 211.960938 168.738281 210.550781 168.285156 208.910156 168.285156 C 201.734375 168.285156 195.726562 168.285156 189.890625 168.285156 C 192.003906 168.285156 193.941406 170.308594 193.941406 172.335938 Z M 193.941406 180.3125 " fill-opacity="1" fill-rule="nonzero"/></g><g clip-path="url(#6a53d5ff7e)"><path fill="#0067e5" d="M 64.921875 198.796875 C 64.921875 200.277344 65.054688 201.519531 65.328125 202.527344 C 65.601562 203.535156 65.871094 204.335938 66.144531 204.941406 C 67.1875 207.339844 68.519531 209.398438 70.15625 211.117188 C 71.792969 212.835938 73.644531 214.074219 75.71875 214.835938 C 76.644531 215.214844 77.738281 215.5625 78.992188 215.863281 C 80.242188 216.160156 81.6875 216.308594 83.324219 216.308594 L 104.273438 216.308594 C 104.820312 216.308594 105.09375 216.035156 105.09375 215.488281 L 105.09375 209.71875 C 105.09375 207.695312 103.15625 205.675781 101.042969 205.675781 L 83.085938 205.675781 C 81.167969 205.511719 79.6875 204.867188 78.621094 203.75 C 77.5625 202.632812 76.941406 201.121094 76.777344 199.210938 L 76.777344 178.511719 C 76.777344 175.675781 77.296875 173.367188 78.339844 171.597656 C 79.375 169.828125 80.953125 168.722656 83.085938 168.285156 L 104.273438 168.285156 C 104.820312 168.285156 105.09375 168.011719 105.09375 167.464844 L 105.09375 161.695312 C 105.09375 159.675781 103.15625 157.652344 101.042969 157.652344 L 82.589844 157.652344 C 79.917969 157.652344 77.414062 158.199219 75.066406 159.289062 C 72.71875 160.378906 70.699219 161.902344 69.015625 163.871094 C 68.410156 164.570312 67.824219 165.355469 67.253906 166.199219 C 66.675781 167.042969 66.226562 168.070312 65.898438 169.269531 C 65.246094 171.34375 64.921875 173.550781 64.921875 175.898438 Z M 64.921875 198.796875 " fill-opacity="1" fill-rule="nonzero"/></g><g clip-path="url(#bcbaf5f0af)"><path fill="#0067e5" d="M 144.683594 157.652344 L 152.503906 157.652344 C 154.613281 157.652344 156.546875 159.675781 156.546875 161.695312 L 156.546875 215.488281 C 156.546875 216.035156 156.273438 216.308594 155.730469 216.308594 L 145.503906 216.308594 C 144.957031 216.308594 144.683594 216.035156 144.683594 215.488281 L 144.683594 192.996094 C 144.683594 192.449219 144.410156 192.175781 143.867188 192.175781 L 124.480469 192.175781 C 123.933594 192.175781 123.660156 192.449219 123.660156 192.996094 L 123.660156 215.488281 C 123.660156 216.035156 123.386719 216.308594 122.84375 216.308594 L 112.617188 216.308594 C 112.070312 216.308594 111.796875 216.035156 111.796875 215.488281 L 111.796875 161.695312 C 111.796875 159.675781 109.863281 157.652344 107.753906 157.652344 L 119.617188 157.652344 C 121.726562 157.652344 123.660156 159.675781 123.660156 161.695312 L 123.660156 177.492188 C 123.660156 179.519531 121.726562 181.542969 119.609375 181.542969 C 126.820312 181.542969 135.210938 181.542969 143.867188 181.542969 C 144.410156 181.542969 144.683594 181.261719 144.683594 180.71875 L 144.683594 161.695312 C 144.683594 159.675781 142.75 157.652344 140.640625 157.652344 Z M 144.683594 157.652344 " fill-opacity="1" fill-rule="nonzero"/></g><g clip-path="url(#4647df0309)"><path fill="#0067e5" d="M 163.34375 157.652344 L 171.15625 157.652344 C 173.273438 157.652344 175.207031 159.675781 175.207031 161.695312 L 175.207031 215.488281 C 175.207031 216.035156 174.925781 216.308594 174.386719 216.308594 L 164.160156 216.308594 C 163.617188 216.308594 163.34375 216.035156 163.34375 215.488281 L 163.34375 161.695312 C 163.34375 159.675781 161.410156 157.652344 159.292969 157.652344 Z M 163.34375 157.652344 " fill-opacity="1" fill-rule="nonzero"/></g><g clip-path="url(#f94639c64a)"><path fill="#0067e5" d="M 46.675781 161.695312 L 46.675781 215.488281 C 46.675781 216.035156 46.949219 216.308594 47.496094 216.308594 L 57.722656 216.308594 C 58.265625 216.308594 58.539062 216.035156 58.539062 215.488281 L 58.539062 161.695312 C 58.539062 159.675781 56.605469 157.652344 54.488281 157.652344 L 42.625 157.652344 C 44.742188 157.652344 46.675781 159.675781 46.675781 161.695312 Z M 46.675781 161.695312 " fill-opacity="1" fill-rule="nonzero"/></g></svg>